#!OML:ASF \\Waltz\H\Terrain\Patient Classification 1\Animal2\Wednesday\Animal2.ASF
:FULLY-SPECIFIED
:DEGREES
113
root 10.1274 17.2928 -22.117 3.56395 -16.9999 -3.92696
lowerback 4.18853 2.36965 4.11819
upperback -7.43663 3.52754 -0.337799
thorax -9.99262 1.37658 -3.10381
lowerneck 4.8469 7.61193 16.6958
upperneck -6.82437 10.2015 -25.001
head -0.446811 5.52128 -10.7151
rclavicle 6.85807e-015 2.38542e-015
rhumerus 36.1019 27.2329 -36.1743
rradius 47.6093
rwrist -26.1503
rhand -11.4326 19.6883
rfingers 7.12502
rthumb 14.6037 -9.77753
lclavicle 6.85807e-015 2.38542e-015
lhumerus 15.0533 20.7114 -0.956345
lradius 49.783
lwrist 6.01275
lhand -45.8949 12.8116
lfingers 7.12502
lthumb -18.6446 41.9381
rfemur -11.3046 -22.1308 20.8984
rtibia 54.7238
rfoot -14.6599 -14.9196
rtoes 26.4422
lfemur -19.3171 10.8144 -23.7808
ltibia 39.8378
lfoot -26.7448 12.2053
ltoes 2.92565
114
root 10.1027 17.2639 -22.046 3.29022 -16.0807 -3.80952
lowerback 4.30679 2.39474 4.15054
upperback -7.39644 3.54957 -0.583926
thorax -9.99973 1.37453 -3.3926
lowerneck 4.14618 7.45478 17.1606
upperneck -6.07661 10.0412 -25.4526
head -0.0956272 5.38677 -10.9091
rclavicle -2.127e-014 -3.57812e-015
rhumerus 36.0511 27.3828 -35.9253
rradius 47.8434
rwrist -26.3812
rhand -11.5091 19.6513
rfingers 7.12502
rthumb 14.53 -9.81989
lclavicle -2.127e-014 -3.57812e-015
lhumerus 15.6454 21.2824 -0.724141
lradius 49.5742
lwrist 5.68803
lhand -45.4647 12.8065
lfingers 7.12502
lthumb -18.2308 41.9722
rfemur -11.8942 -22.1341 20.4716
rtibia 56.5943
rfoot -14.1703 -13.9869
rtoes 31.6269
lfemur -18.8818 10.7612 -23.7754
ltibia 39.9433
lfoot -25.516 13.4148
ltoes -6.96578
115
root 10.0774 17.2488 -21.9716 2.96302 -15.0385 -3.62149
lowerback 4.58484 2.36577 4.14065
upperback -7.40152 3.5014 -0.852565
thorax -10.1608 1.33422 -3.68519
lowerneck 4.12484 7.45475 16.8394
upperneck -6.06747 10.0246 -25.0489
head -0.13917 5.37309 -10.7075
rclavicle 2.32578e-014 1.07344e-014
rhumerus 36.0371 27.3389 -36.1812
rradius 47.7001
rwrist -26.3289
rhand -11.3665 19.7569
rfingers 7.12502
rthumb 14.6675 -9.70433
lclavicle 2.32578e-014 1.07344e-014
lhumerus 15.9649 21.4471 -0.832021
lradius 49.5799
lwrist 5.97177
lhand -44.3612 12.3145
lfingers 7.12502
lthumb -17.1689 41.576
rfemur -12.5005 -22.203 19.9891
rtibia 58.339
rfoot -12.4296 -13.7558
rtoes 29.9123
lfemur -18.3288 10.5371 -23.8041
ltibia 40.0016
lfoot -25.6617 12.8381
ltoes -6.55615
116
root 10.0492 17.2336 -21.8998 2.68299 -13.9685 -3.25762
lowerback 4.79564 2.27761 3.85313
upperback -7.48542 3.34973 -1.04336
thorax -10.3982 1.26484 -3.72611
lowerneck 4.65933 7.45743 16.2588
upperneck -6.43317 10.0015 -24.6562
head -0.399001 5.4029 -10.5068
rclavicle -1.45113e-014 -3.1408e-014
rhumerus 36.2598 27.4953 -36.3708
rradius 47.4964
rwrist -26.0909
rhand -11.3378 19.7457
rfingers 7.12502
rthumb 14.6951 -9.71348
lclavicle -1.45113e-014 -3.1408e-014
lhumerus 15.8954 21.4714 -0.960609
lradius 49.6954
lwrist 6.13938
lhand -43.4441 11.8735
lfingers 7.12502
lthumb -16.286 41.2096
rfemur -13.1668 -22.0789 19.4078
rtibia 59.9194
rfoot -10.72 -13.3677
rtoes 25.6014
lfemur -17.8921 10.1916 -24.0145
ltibia 40.043
lfoot -26.1795 11.6678
ltoes -3.53695
117
root 10.021 17.2094 -21.8301 2.44353 -12.8676 -2.93851
lowerback 4.95149 2.18901 3.59061
upperback -7.60566 3.19956 -1.1937
thorax -10.645 1.19588 -3.73543
lowerneck 5.13401 7.30982 15.9201
upperneck -6.54569 9.80914 -24.5888
head -0.579225 5.34356 -10.4648
rclavicle 5.96354e-016 1.27222e-014
rhumerus 36.3443 27.7614 -36.4488
rradius 47.6028
rwrist -25.814
rhand -10.9831 19.5051
rfingers 7.12502
rthumb 15.0368 -9.92889
lclavicle 5.96354e-016 1.27222e-014
lhumerus 15.8591 21.5337 -0.863877
lradius 49.8376
lwrist 6.10415
lhand -43.3351 12.2107
lfingers 7.12502
lthumb -16.1811 41.5553
rfemur -13.7314 -21.7138 18.9184
rtibia 61.282
rfoot -9.71468 -12.5111
rtoes 22.7245
lfemur -17.5258 9.87592 -24.1988
ltibia 40.0847
lfoot -26.6617 10.6054
ltoes -1.22682
118
root 9.99027 17.1897 -21.7568 2.27414 -11.7449 -2.90006
lowerback 4.97964 2.123 3.62248
upperback -7.57388 3.10471 -1.31334
thorax -10.627 1.14313 -3.87014
lowerneck 3.50278 7.85161 15.4757
upperneck -4.61049 10.6687 -23.9486
head 0.352845 5.61795 -9.96668
rclavicle -4.42296e-014 5.56597e-015
rhumerus 36.5572 27.9786 -36.0641
rradius 47.9438
rwrist -25.9097
rhand -11.0701 19.3251
rfingers 7.12502
rthumb 14.953 -10.1152
lclavicle -4.42296e-014 5.56597e-015
lhumerus 15.982 21.7969 -0.676585
lradius 50.0009
lwrist 6.29131
lhand -43.5298 12.442
lfingers 7.12502
lthumb -16.3685 41.7713
rfemur -14.281 -21.1972 18.7819
rtibia 62.3606
rfoot -8.73359 -11.5825
rtoes 17.864
lfemur -17.1631 9.60498 -24.0579
ltibia 40.1668
lfoot -26.9589 9.59472
ltoes 0.499944
119
root 9.95687 17.17 -21.6796 2.08744 -10.5792 -2.85703
lowerback 4.88271 2.07462 3.66889
upperback -7.41352 3.02421 -1.48063
thorax -10.3847 1.10375 -4.05417
lowerneck 2.88195 7.91944 15.4945
upperneck -4.11384 10.7767 -24.0821
head 0.631602 5.62483 -9.96342
rclavicle -9.34288e-015 -1.11319e-014
rhumerus 36.9064 27.9423 -35.7223
rradius 48.0667
rwrist -26.1986
rhand -11.6472 19.4608
rfingers 7.12502
rthumb 14.397 -10.0199
lclavicle -9.34288e-015 -1.11319e-014
lhumerus 16.2796 22.3557 -0.399427
lradius 50.0648
lwrist 6.42122
lhand -43.5472 12.0408
lfingers 7.12502
lthumb -16.3852 41.3687
rfemur -14.7332 -20.4565 18.6192
rtibia 63.1658
rfoot -8.64536 -10.0456
rtoes 18.1109
lfemur -16.8054 9.26317 -23.9206
ltibia 40.298
lfoot -26.718 9.58331
ltoes -3.10337
120
root 9.9245 17.1498 -21.6029 1.83972 -9.42932 -2.62535
lowerback 4.94884 2.05024 3.51842
upperback -7.39622 2.9616 -1.68065
thorax -10.4074 1.07571 -4.18019
lowerneck 3.00795 7.64393 15.808
upperneck -4.02931 10.441 -24.6877
head 0.622286 5.47176 -10.2589
rclavicle -4.17448e-015 -7.95139e-016
rhumerus 36.9133 27.7887 -36.0169
rradius 48.0767
rwrist -26.2011
rhand -11.4417 19.332
rfingers 7.12502
rthumb 14.595 -10.1344
lclavicle -4.17448e-015 -7.95139e-016
lhumerus 16.5578 22.6903 -0.0635878
lradius 50.199
lwrist 6.49662
lhand -43.302 11.7889
lfingers 7.12502
lthumb -16.1492 41.1361
rfemur -15.0968 -19.591 18.2208
rtibia 63.7783
rfoot -9.06542 -8.09883
rtoes 21.9586
lfemur -16.4406 8.85215 -24.0155
ltibia 40.441
lfoot -26.0904 10.691
ltoes -11.9038
121
root 9.89133 17.1336 -21.5273 1.64792 -8.29138 -2.45512
lowerback 5.12857 2.0314 3.36156
upperback -7.50297 2.9167 -1.81271
thorax -10.6407 1.05091 -4.24337
lowerneck 3.13145 7.38229 16.0038
upperneck -3.8021 10.1435 -25.2094
head 0.644703 5.33357 -10.5016
rclavicle -1.31198e-014 -1.59028e-015
rhumerus 36.7949 27.8581 -36.2189
rradius 48.2413
rwrist -26.0071
rhand -10.8382 19.0622
rfingers 7.12502
rthumb 15.1764 -10.3612
lclavicle -1.31198e-014 -1.59028e-015
lhumerus 16.684 22.6617 0.217949
lradius 50.507
lwrist 7.00209
lhand -42.8546 11.9796
lfingers 7.12502
lthumb -15.7183 41.3612
rfemur -15.5027 -18.7906 17.9703
rtibia 64.1992
rfoot -9.58735 -6.48026
rtoes 21.3947
lfemur -16.113 8.47055 -24.0273
ltibia 40.5932
lfoot -25.776 11.294
ltoes -18.2061
122
root 9.8561 17.1158 -21.4489 1.51929 -7.06685 -2.32164
lowerback 5.22821 1.97038 3.27542
upperback -7.59273 2.81814 -1.94813
thorax -10.8094 0.996877 -4.33781
lowerneck 3.59267 7.13023 16.0967
upperneck -3.96695 9.82553 -25.7085
head 0.4851 5.21881 -10.7462
rclavicle 3.29983e-014 -5.56597e-015
rhumerus 36.6458 28.1445 -35.9766
rradius 48.7533
rwrist -26.0923
rhand -10.4985 19.1579
rfingers 7.12502
rthumb 15.5036 -10.2405
lclavicle 3.29983e-014 -5.56597e-015
lhumerus 16.7219 22.6867 0.453348
lradius 50.8279
lwrist 7.49694
lhand -42.6099 11.9609
lfingers 7.12502
lthumb -15.4827 41.3609
rfemur -15.9316 -18.1263 17.8139
rtibia 64.4444
rfoot -10.5412 -5.27621
rtoes 19.2506
lfemur -15.8311 7.97701 -23.9894
ltibia 40.7415
lfoot -25.8983 11.0837
ltoes -20.1651
123
root 9.81809 17.1008 -21.3709 1.44746 -5.80727 -2.14333
lowerback 5.25963 1.9 3.15652
upperback -7.65154 2.69864 -2.10447
thorax -10.9046 0.937425 -4.42858
lowerneck 4.03194 6.9106 16.0537
upperneck -4.18631 9.52981 -26.1022
head 0.302905 5.11622 -10.9275
rclavicle 3.47873e-014 -4.77083e-015
rhumerus 36.4693 28.4104 -35.6285
rradius 49.421
rwrist -26.5463
rhand -10.3881 19.2412
rfingers 7.12502
rthumb 15.6099 -10.149
lclavicle 3.47873e-014 -4.77083e-015
lhumerus 16.6625 22.8722 0.701467
lradius 51.2557
lwrist 7.70089
lhand -42.5258 11.6944
lfingers 7.12502
lthumb -15.4017 41.1007
rfemur -16.443 -17.3882 17.6661
rtibia 64.5546
rfoot -11.7099 -4.54116
rtoes 19.1591
lfemur -15.6436 7.31339 -24.0007
ltibia 40.9007
lfoot -26.2956 10.3234
ltoes -18.9232
124
root 9.77878 17.0911 -21.2942 1.35029 -4.51038 -2.01765
lowerback 5.3384 1.8052 3.07005
upperback -7.67452 2.54951 -2.26891
thorax -10.99 0.861377 -4.54332
lowerneck 3.90706 6.82225 15.9941
upperneck -4.0759 9.41058 -26.2964
head 0.337115 5.05158 -10.9864
rclavicle 4.77083e-014 -1.35174e-014
rhumerus 36.5849 28.7784 -35.1593
rradius 49.8956
rwrist -27.2299
rhand -10.514 19.2074
rfingers 7.12502
rthumb 15.4886 -10.1922
lclavicle 4.77083e-014 -1.35174e-014
lhumerus 16.6604 23.1482 0.937628
lradius 51.7107
lwrist 8.26943
lhand -41.881 11.4432
lfingers 7.12502
lthumb -14.7805 40.8961
rfemur -16.9371 -16.5248 17.6235
rtibia 64.5457
rfoot -12.9935 -4.2342
rtoes 20.6518
lfemur -15.4044 6.68261 -23.9287
ltibia 41.0397
lfoot -26.4005 9.80828
ltoes -19.6328
125
root 9.73672 17.0821 -21.2149 1.20733 -3.23276 -1.98415
lowerback 5.20144 1.70018 3.06936
upperback -7.51503 2.39135 -2.41154
thorax -10.7371 0.789302 -4.66209
lowerneck 3.47935 6.82565 15.9404
upperneck -3.81821 9.41444 -26.4525
head 0.491641 5.02257 -11.0067
rclavicle -4.96962e-015 2.38542e-015
rhumerus 37.0842 29.0617 -34.5573
rradius 50.3053
rwrist -27.9362
rhand -10.6127 19.0897
rfingers 7.12502
rthumb 15.3936 -10.3172
lclavicle -4.96962e-015 2.38542e-015
lhumerus 16.5422 23.0151 1.00691
lradius 51.6962
lwrist 6.50841
lhand -44.1519 14.2519
lfingers 7.12502
lthumb -16.9674 43.5308
rfemur -17.3465 -15.6685 17.6653
rtibia 64.4474
rfoot -14.3861 -4.13455
rtoes 21.9354
lfemur -15.081 6.14254 -23.7319
ltibia 41.1298
lfoot -26.4538 9.39071
ltoes -20.9314
